<?xml version="1.0" encoding="UTF-8" standalone="no"?>
<svg
   xmlns:dc="http://purl.org/dc/elements/1.1/"
   xmlns:cc="http://creativecommons.org/ns#"
   xmlns:rdf="http://www.w3.org/1999/02/22-rdf-syntax-ns#"
   xmlns:svg="http://www.w3.org/2000/svg"
   xmlns="http://www.w3.org/2000/svg"
   xmlns:sodipodi="http://sodipodi.sourceforge.net/DTD/sodipodi-0.dtd"
   xmlns:inkscape="http://www.inkscape.org/namespaces/inkscape"
   version="1.1"
   viewBox="0 0 696.73737 245.51968"
   stroke-miterlimit="10"
   id="svg165"
   sodipodi:docname="schema.svg"
   width="696.73737"
   height="245.51968"
   style="fill:none;stroke:none;stroke-linecap:square;stroke-miterlimit:10"
   inkscape:version="0.92.4 (5da689c313, 2019-01-14)">
  <metadata
     id="metadata171">
    <rdf:RDF>
      <cc:Work
         rdf:about="">
        <dc:format>image/svg+xml</dc:format>
        <dc:type
           rdf:resource="http://purl.org/dc/dcmitype/StillImage" />
        <dc:title />
      </cc:Work>
    </rdf:RDF>
  </metadata>
  <defs
     id="defs169" />
  <sodipodi:namedview
     pagecolor="#ffffff"
     bordercolor="#666666"
     borderopacity="1"
     objecttolerance="10"
     gridtolerance="10"
     guidetolerance="10"
     inkscape:pageopacity="0"
     inkscape:pageshadow="2"
     inkscape:window-width="1920"
     inkscape:window-height="1031"
     id="namedview167"
     showgrid="false"
     fit-margin-top="0"
     fit-margin-left="0"
     fit-margin-right="0"
     fit-margin-bottom="0"
     inkscape:zoom="1.9447787"
     inkscape:cx="255.55607"
     inkscape:cy="122.75984"
     inkscape:window-x="0"
     inkscape:window-y="0"
     inkscape:window-maximized="1"
     inkscape:current-layer="svg165" />
  <clipPath
     id="ge92ac9dfa5_0_0.0">
    <path
       d="M 0,0 H 960 V 540 H 0 Z"
       id="path2"
       inkscape:connector-curvature="0"
       style="clip-rule:nonzero" />
  </clipPath>
  <g
     clip-path="url(#ge92ac9dfa5_0_0.0)"
     id="g163"
     transform="translate(-22.762577,-13.990813)">
    <path
       d="m 287.08136,75.782234 v 0 c 0,-2.296158 1.86142,-4.157562 4.15756,-4.157562 h 93.88962 c 1.10263,0 2.16013,0.438026 2.93982,1.21772 0.7797,0.779693 1.21774,1.837188 1.21774,2.939842 v 16.629753 c 0,2.296165 -1.86142,4.15757 -4.15756,4.15757 h -93.88962 c -2.29614,0 -4.15756,-1.861404 -4.15756,-4.15757 z"
       id="path7"
       inkscape:connector-curvature="0"
       style="fill:#eeeeee;fill-rule:evenodd" />
    <path
       d="m 287.08136,75.782234 v 0 c 0,-2.296158 1.86142,-4.157562 4.15756,-4.157562 h 93.88962 c 1.10263,0 2.16013,0.438026 2.93982,1.21772 0.7797,0.779693 1.21774,1.837188 1.21774,2.939842 v 16.629753 c 0,2.296165 -1.86142,4.15757 -4.15756,4.15757 h -93.88962 c -2.29614,0 -4.15756,-1.861404 -4.15756,-4.15757 z"
       id="path9"
       inkscape:connector-curvature="0"
       style="fill-rule:evenodd;stroke:#595959;stroke-width:1;stroke-linecap:butt;stroke-linejoin:round" />
    <path
       d="m 314.69507,85.83461 1.20312,-0.109375 q 0.0781,0.71875 0.39063,1.1875 0.3125,0.453125 0.95312,0.734375 0.65625,0.28125 1.46875,0.28125 0.71875,0 1.26563,-0.21875 0.5625,-0.21875 0.82812,-0.578125 0.26563,-0.375 0.26563,-0.828125 0,-0.453125 -0.26563,-0.78125 -0.25,-0.328125 -0.84375,-0.5625 -0.39062,-0.15625 -1.70312,-0.46875 -1.3125,-0.3125 -1.84375,-0.59375 -0.67188,-0.359375 -1.01563,-0.890625 -0.32812,-0.53125 -0.32812,-1.1875 0,-0.71875 0.40625,-1.34375 0.40625,-0.625 1.1875,-0.953125 0.79687,-0.328125 1.76562,-0.328125 1.04688,0 1.85938,0.34375 0.8125,0.34375 1.25,1.015625 0.4375,0.65625 0.46875,1.484375 l -1.20313,0.09375 q -0.10937,-0.90625 -0.67187,-1.359375 -0.5625,-0.46875 -1.65625,-0.46875 -1.14063,0 -1.67188,0.421875 -0.51562,0.421875 -0.51562,1.015625 0,0.515625 0.35937,0.84375 0.375,0.328125 1.90625,0.6875 1.54688,0.34375 2.10938,0.59375 0.84375,0.390625 1.23437,0.984375 0.39063,0.578125 0.39063,1.359375 0,0.75 -0.4375,1.4375 -0.42188,0.671875 -1.25,1.046875 -0.8125,0.359375 -1.82813,0.359375 -1.29687,0 -2.17187,-0.375 -0.875,-0.375 -1.375,-1.125 -0.5,-0.765625 -0.53125,-1.71875 z m 8.73349,-0.390625 q 0,-1.921875 1.07812,-2.84375 0.89063,-0.765625 2.17188,-0.765625 1.42187,0 2.32812,0.9375 0.90625,0.921875 0.90625,2.578125 0,1.328125 -0.40625,2.09375 -0.39062,0.765625 -1.15625,1.1875 -0.76562,0.421875 -1.67187,0.421875 -1.45313,0 -2.35938,-0.921875 -0.89062,-0.9375 -0.89062,-2.6875 z m 1.20312,0 q 0,1.328125 0.57813,1.984375 0.59375,0.65625 1.46875,0.65625 0.875,0 1.45312,-0.65625 0.57813,-0.671875 0.57813,-2.03125 0,-1.28125 -0.59375,-1.9375 -0.57813,-0.65625 -1.4375,-0.65625 -0.875,0 -1.46875,0.65625 -0.57813,0.65625 -0.57813,1.984375 z m 6.63123,3.453125 v -9.546875 h 1.17188 v 9.546875 z m 7.50797,0 v -1.015625 q -0.8125,1.171875 -2.1875,1.171875 -0.60938,0 -1.14063,-0.234375 -0.53125,-0.234375 -0.79687,-0.578125 -0.25,-0.359375 -0.35938,-0.875 -0.0625,-0.34375 -0.0625,-1.09375 v -4.28125 h 1.17188 v 3.828125 q 0,0.921875 0.0625,1.234375 0.10937,0.46875 0.46875,0.734375 0.35937,0.25 0.89062,0.25 0.51563,0 0.98438,-0.265625 0.46875,-0.265625 0.65625,-0.734375 0.1875,-0.46875 0.1875,-1.34375 V 81.99086 h 1.17187 v 6.90625 z m 5.44372,-1.046875 0.17188,1.03125 q -0.5,0.109375 -0.89063,0.109375 -0.64062,0 -1,-0.203125 -0.34375,-0.203125 -0.48437,-0.53125 -0.14063,-0.328125 -0.14063,-1.390625 v -3.96875 h -0.85937 v -0.90625 h 0.85937 v -1.71875 l 1.17188,-0.703125 v 2.421875 h 1.17187 v 0.90625 h -1.17187 v 4.046875 q 0,0.5 0.0469,0.640625 0.0625,0.140625 0.20313,0.234375 0.14062,0.07813 0.40625,0.07813 0.20312,0 0.51562,-0.04687 z m 1.15613,-7.140625 v -1.359375 h 1.17187 v 1.359375 z m 0,8.1875 v -6.90625 h 1.17187 v 6.90625 z m 2.50796,-3.453125 q 0,-1.921875 1.07813,-2.84375 0.89062,-0.765625 2.17187,-0.765625 1.42188,0 2.32813,0.9375 0.90625,0.921875 0.90625,2.578125 0,1.328125 -0.40625,2.09375 -0.39063,0.765625 -1.15625,1.1875 -0.76563,0.421875 -1.67188,0.421875 -1.45312,0 -2.35937,-0.921875 -0.89063,-0.9375 -0.89063,-2.6875 z m 1.20313,0 q 0,1.328125 0.57812,1.984375 0.59375,0.65625 1.46875,0.65625 0.875,0 1.45313,-0.65625 0.57812,-0.671875 0.57812,-2.03125 0,-1.28125 -0.59375,-1.9375 -0.57812,-0.65625 -1.4375,-0.65625 -0.875,0 -1.46875,0.65625 -0.57812,0.65625 -0.57812,1.984375 z m 6.64685,3.453125 v -6.90625 h 1.0625 v 0.984375 q 0.75,-1.140625 2.1875,-1.140625 0.625,0 1.15625,0.21875 0.53125,0.21875 0.78125,0.59375 0.26562,0.359375 0.375,0.859375 0.0625,0.328125 0.0625,1.140625 v 4.25 h -1.17188 v -4.203125 q 0,-0.71875 -0.14062,-1.0625 -0.14063,-0.359375 -0.48438,-0.5625 -0.34375,-0.21875 -0.8125,-0.21875 -0.75,0 -1.29687,0.46875 -0.54688,0.46875 -0.54688,1.796875 v 3.78125 z"
       id="path11"
       inkscape:connector-curvature="0"
       style="fill:#000000;fill-rule:nonzero" />
    <path
       d="m 172.22047,134.31758 v 0 c 0,-6.88834 12.59244,-12.47244 28.12598,-12.47244 v 0 c 15.53355,0 28.12599,5.5841 28.12599,12.47244 v 0 c 0,6.88834 -12.59244,12.47244 -28.12599,12.47244 v 0 c -15.53354,0 -28.12598,-5.5841 -28.12598,-12.47244 z"
       id="path13"
       inkscape:connector-curvature="0"
       style="fill:#eeeeee;fill-rule:evenodd" />
    <path
       d="m 172.22047,134.31758 v 0 c 0,-6.88834 12.59244,-12.47244 28.12598,-12.47244 v 0 c 15.53355,0 28.12599,5.5841 28.12599,12.47244 v 0 c 0,6.88834 -12.59244,12.47244 -28.12599,12.47244 v 0 c -15.53354,0 -28.12598,-5.5841 -28.12598,-12.47244 z"
       id="path15"
       inkscape:connector-curvature="0"
       style="fill-rule:evenodd;stroke:#595959;stroke-width:1;stroke-linecap:butt;stroke-linejoin:round" />
    <path
       d="m 196.5495,139.11758 v -9.54688 h 1.29687 l 5.01563,7.5 v -7.5 h 1.20312 v 9.54688 h -1.29687 l -5.01563,-7.5 v 7.5 z"
       id="path17"
       inkscape:connector-curvature="0"
       style="fill:#000000;fill-rule:nonzero" />
    <path
       d="m 266.8517,242.28609 v 0 c 0,-6.88834 11.45727,-12.47244 25.59055,-12.47244 v 0 c 14.13327,0 25.59054,5.5841 25.59054,12.47244 v 0 c 0,6.88834 -11.45727,12.47244 -25.59054,12.47244 v 0 c -14.13327,0 -25.59055,-5.5841 -25.59055,-12.47244 z"
       id="path19"
       inkscape:connector-curvature="0"
       style="fill:#eeeeee;fill-rule:evenodd" />
    <path
       d="m 266.8517,242.28609 v 0 c 0,-6.88834 11.45727,-12.47244 25.59055,-12.47244 v 0 c 14.13327,0 25.59054,5.5841 25.59054,12.47244 v 0 c 0,6.88834 -11.45727,12.47244 -25.59054,12.47244 v 0 c -14.13327,0 -25.59055,-5.5841 -25.59055,-12.47244 z"
       id="path21"
       inkscape:connector-curvature="0"
       style="fill-rule:evenodd;stroke:#595959;stroke-width:1;stroke-linecap:butt;stroke-linejoin:round" />
    <path
       d="m 289.6571,244.72672 1.1875,-0.0781 q 0,0.51563 0.15625,0.875 0.15625,0.35938 0.57813,0.59375 0.42187,0.21875 0.96875,0.21875 0.78125,0 1.17187,-0.3125 0.39063,-0.3125 0.39063,-0.73437 0,-0.3125 -0.23438,-0.57813 -0.23437,-0.28125 -1.17187,-0.67187 -0.9375,-0.40625 -1.1875,-0.57813 -0.4375,-0.26562 -0.67188,-0.625 -0.21875,-0.35937 -0.21875,-0.82812 0,-0.8125 0.65625,-1.39063 0.65625,-0.59375 1.82813,-0.59375 1.29687,0 1.96875,0.60938 0.6875,0.59375 0.71875,1.57812 l -1.15625,0.0781 q -0.0312,-0.625 -0.45313,-0.98438 -0.40625,-0.375 -1.17187,-0.375 -0.60938,0 -0.95313,0.28125 -0.32812,0.28125 -0.32812,0.60938 0,0.3125 0.29687,0.5625 0.1875,0.17187 1,0.53125 1.35938,0.57812 1.70313,0.92187 0.5625,0.53125 0.5625,1.3125 0,0.51563 -0.3125,1.01563 -0.3125,0.48437 -0.96875,0.78125 -0.64063,0.29687 -1.51563,0.29687 -1.20312,0 -2.04687,-0.59375 -0.84375,-0.59375 -0.79688,-1.92187 z"
       id="path23"
       inkscape:connector-curvature="0"
       style="fill:#000000;fill-rule:nonzero" />
    <path
       d="m 292.43832,132.91609 v 0 c 0,-2.29616 1.86139,-4.15756 4.15756,-4.15756 h 69.92108 c 1.10266,0 2.16016,0.43803 2.93985,1.21773 0.7797,0.77969 1.21771,1.83718 1.21771,2.93983 v 16.62976 c 0,2.29616 -1.86138,4.15756 -4.15756,4.15756 h -69.92108 c -2.29617,0 -4.15756,-1.8614 -4.15756,-4.15756 z"
       id="path25"
       inkscape:connector-curvature="0"
       style="fill:#eeeeee;fill-rule:evenodd" />
    <path
       d="m 292.43832,132.91609 v 0 c 0,-2.29616 1.86139,-4.15756 4.15756,-4.15756 h 69.92108 c 1.10266,0 2.16016,0.43803 2.93985,1.21773 0.7797,0.77969 1.21771,1.83718 1.21771,2.93983 v 16.62976 c 0,2.29616 -1.86138,4.15756 -4.15756,4.15756 h -69.92108 c -2.29617,0 -4.15756,-1.8614 -4.15756,-4.15756 z"
       id="path27"
       inkscape:connector-curvature="0"
       style="fill-rule:evenodd;stroke:#595959;stroke-width:1;stroke-linecap:butt;stroke-linejoin:round" />
    <path
       d="m 307.586,144.9841 0.17188,1.03125 q -0.5,0.10937 -0.89063,0.10937 -0.64062,0 -1,-0.20312 -0.34375,-0.20313 -0.48437,-0.53125 -0.14063,-0.32813 -0.14063,-1.39063 v -3.96875 h -0.85937 v -0.90625 h 0.85937 v -1.71875 l 1.17188,-0.70312 v 2.42187 h 1.17187 v 0.90625 h -1.17187 v 4.04688 q 0,0.5 0.0469,0.64062 0.0625,0.14063 0.20313,0.23438 0.14062,0.0781 0.40625,0.0781 0.20312,0 0.51562,-0.0469 z m 1.12485,1.04687 v -6.90625 h 1.0625 v 1.04688 q 0.40625,-0.73438 0.73437,-0.96875 0.34375,-0.23438 0.76563,-0.23438 0.59375,0 1.20312,0.375 l -0.40625,1.07813 q -0.4375,-0.25 -0.85937,-0.25 -0.39063,0 -0.70313,0.23437 -0.29687,0.23438 -0.42187,0.64063 -0.20313,0.625 -0.20313,1.35937 v 3.625 z m 9.18838,-2.21875 1.20313,0.14063 q -0.28125,1.0625 -1.0625,1.65625 -0.76563,0.57812 -1.96875,0.57812 -1.51563,0 -2.40625,-0.9375 -0.89063,-0.9375 -0.89063,-2.60937 0,-1.75 0.89063,-2.70313 0.90625,-0.96875 2.34375,-0.96875 1.39062,0 2.26562,0.9375 0.875,0.9375 0.875,2.65625 0,0.10938 0,0.3125 h -5.15625 q 0.0625,1.14063 0.64063,1.75 0.57812,0.59375 1.4375,0.59375 0.65625,0 1.10937,-0.32812 0.45313,-0.34375 0.71875,-1.07813 z m -3.84375,-1.90625 h 3.85938 q -0.0781,-0.85937 -0.4375,-1.29687 -0.5625,-0.6875 -1.45313,-0.6875 -0.8125,0 -1.35937,0.54687 -0.54688,0.53125 -0.60938,1.4375 z m 11.25623,1.90625 1.20312,0.14063 q -0.28125,1.0625 -1.0625,1.65625 -0.76562,0.57812 -1.96875,0.57812 -1.51562,0 -2.40625,-0.9375 -0.89062,-0.9375 -0.89062,-2.60937 0,-1.75 0.89062,-2.70313 0.90625,-0.96875 2.34375,-0.96875 1.39063,0 2.26563,0.9375 0.875,0.9375 0.875,2.65625 0,0.10938 0,0.3125 h -5.15625 q 0.0625,1.14063 0.64062,1.75 0.57813,0.59375 1.4375,0.59375 0.65625,0 1.10938,-0.32812 0.45312,-0.34375 0.71875,-1.07813 z m -3.84375,-1.90625 h 3.85937 q -0.0781,-0.85937 -0.4375,-1.29687 -0.5625,-0.6875 -1.45312,-0.6875 -0.8125,0 -1.35938,0.54687 -0.54687,0.53125 -0.60937,1.4375 z m 6.06872,1.26563 v -1.1875 h 3.59375 v 1.1875 z m 4.87586,2.85937 v -9.54687 h 1.17187 v 9.54687 z m 7.71109,-2.21875 1.20312,0.14063 q -0.28125,1.0625 -1.0625,1.65625 -0.76562,0.57812 -1.96875,0.57812 -1.51562,0 -2.40625,-0.9375 -0.89062,-0.9375 -0.89062,-2.60937 0,-1.75 0.89062,-2.70313 0.90625,-0.96875 2.34375,-0.96875 1.39063,0 2.26563,0.9375 0.875,0.9375 0.875,2.65625 0,0.10938 0,0.3125 h -5.15625 q 0.0625,1.14063 0.64062,1.75 0.57813,0.59375 1.4375,0.59375 0.65625,0 1.10938,-0.32812 0.45312,-0.34375 0.71875,-1.07813 z m -3.84375,-1.90625 h 3.85937 q -0.0781,-0.85937 -0.4375,-1.29687 -0.5625,-0.6875 -1.45312,-0.6875 -0.8125,0 -1.35938,0.54687 -0.54687,0.53125 -0.60937,1.4375 z m 8.44372,4.125 -2.625,-6.90625 h 1.23438 l 1.48437,4.14063 q 0.23438,0.65625 0.4375,1.39062 0.15625,-0.54687 0.4375,-1.3125 l 1.53125,-4.21875 h 1.21875 l -2.625,6.90625 z m 9.47657,-2.21875 1.20312,0.14063 q -0.28125,1.0625 -1.0625,1.65625 -0.76562,0.57812 -1.96875,0.57812 -1.51562,0 -2.40625,-0.9375 -0.89062,-0.9375 -0.89062,-2.60937 0,-1.75 0.89062,-2.70313 0.90625,-0.96875 2.34375,-0.96875 1.39063,0 2.26563,0.9375 0.875,0.9375 0.875,2.65625 0,0.10938 0,0.3125 h -5.15625 q 0.0625,1.14063 0.64062,1.75 0.57813,0.59375 1.4375,0.59375 0.65625,0 1.10938,-0.32812 0.45312,-0.34375 0.71875,-1.07813 z m -3.84375,-1.90625 h 3.85937 q -0.0781,-0.85937 -0.4375,-1.29687 -0.5625,-0.6875 -1.45312,-0.6875 -0.8125,0 -1.35938,0.54687 -0.54687,0.53125 -0.60937,1.4375 z m 6.50622,4.125 v -9.54687 h 1.17188 v 9.54687 z"
       id="path29"
       inkscape:connector-curvature="0"
       style="fill:#000000;fill-rule:nonzero" />
    <path
       d="m 191.41179,233.7979 v 0 c 0,-6.88834 12.59244,-12.47244 28.12599,-12.47244 v 0 c 15.53356,0 28.12598,5.5841 28.12598,12.47244 v 0 c 0,6.88834 -12.59242,12.47244 -28.12598,12.47244 v 0 c -15.53355,0 -28.12599,-5.5841 -28.12599,-12.47244 z"
       id="path31"
       inkscape:connector-curvature="0"
       style="fill:#eeeeee;fill-rule:evenodd" />
    <path
       d="m 191.41179,233.7979 v 0 c 0,-6.88834 12.59244,-12.47244 28.12599,-12.47244 v 0 c 15.53356,0 28.12598,5.5841 28.12598,12.47244 v 0 c 0,6.88834 -12.59242,12.47244 -28.12598,12.47244 v 0 c -15.53355,0 -28.12599,-5.5841 -28.12599,-12.47244 z"
       id="path33"
       inkscape:connector-curvature="0"
       style="fill-rule:evenodd;stroke:#595959;stroke-width:1;stroke-linecap:butt;stroke-linejoin:round" />
    <path
       d="m 214.42406,238.5979 1.4375,-6.90625 h 1.1875 l -0.25,1.14062 q 0.65625,-0.75 1.17187,-1.01562 0.53125,-0.28125 1.125,-0.28125 0.65625,0 1.07813,0.34375 0.4375,0.32812 0.57812,0.95312 0.51563,-0.65625 1.09375,-0.96875 0.59375,-0.32812 1.23438,-0.32812 0.875,0 1.29687,0.40625 0.4375,0.40625 0.4375,1.15625 0,0.3125 -0.15625,1.04687 l -0.92187,4.45313 h -1.17188 l 0.9375,-4.5625 q 0.125,-0.5625 0.125,-0.8125 0,-0.32813 -0.21875,-0.51563 -0.20312,-0.20312 -0.59375,-0.20312 -0.53125,0 -1.07812,0.32812 -0.54688,0.3125 -0.85938,0.82813 -0.29687,0.51562 -0.51562,1.59375 l -0.70313,3.34375 h -1.1875 l 0.98438,-4.67188 q 0.10937,-0.46875 0.10937,-0.67187 0,-0.34375 -0.21875,-0.54688 -0.21875,-0.20312 -0.54687,-0.20312 -0.5,0 -1.0625,0.32812 -0.54688,0.3125 -0.89063,0.875 -0.34375,0.5625 -0.5625,1.625 l -0.6875,3.26563 z"
       id="path35"
       inkscape:connector-curvature="0"
       style="fill:#000000;fill-rule:nonzero" />
    <path
       d="m 333.71127,238.22318 v 0 c 0,-2.29616 1.86142,-4.15756 4.15756,-4.15756 h 109.2912 c 1.10263,0 2.16013,0.43803 2.93982,1.21773 0.7797,0.77969 1.21774,1.83718 1.21774,2.93983 v 16.62976 c 0,2.29617 -1.86142,4.15756 -4.15756,4.15756 h -109.2912 c -2.29614,0 -4.15756,-1.86139 -4.15756,-4.15756 z"
       id="path37"
       inkscape:connector-curvature="0"
       style="fill:#eeeeee;fill-rule:evenodd" />
    <path
       d="m 333.71127,238.22318 v 0 c 0,-2.29616 1.86142,-4.15756 4.15756,-4.15756 h 109.2912 c 1.10263,0 2.16013,0.43803 2.93982,1.21773 0.7797,0.77969 1.21774,1.83718 1.21774,2.93983 v 16.62976 c 0,2.29617 -1.86142,4.15756 -4.15756,4.15756 h -109.2912 c -2.29614,0 -4.15756,-1.86139 -4.15756,-4.15756 z"
       id="path39"
       inkscape:connector-curvature="0"
       style="fill-rule:evenodd;stroke:#595959;stroke-width:1;stroke-linecap:butt;stroke-linejoin:round" />
    <path
       d="m 365.61707,251.33806 v -6.90625 h 1.04687 v 0.96875 q 0.32813,-0.51562 0.85938,-0.8125 0.54687,-0.3125 1.23437,-0.3125 0.78125,0 1.26563,0.3125 0.48437,0.3125 0.6875,0.89063 0.82812,-1.20313 2.14062,-1.20313 1.03125,0 1.57813,0.57813 0.5625,0.5625 0.5625,1.73437 v 4.75 h -1.17188 v -4.35937 q 0,-0.70313 -0.125,-1 -0.10937,-0.3125 -0.40625,-0.5 -0.29687,-0.1875 -0.70312,-0.1875 -0.71875,0 -1.20313,0.48437 -0.48437,0.48438 -0.48437,1.54688 v 4.01562 h -1.17188 v -4.48437 q 0,-0.78125 -0.29687,-1.17188 -0.28125,-0.39062 -0.92188,-0.39062 -0.5,0 -0.92187,0.26562 -0.42188,0.25 -0.60938,0.75 -0.1875,0.5 -0.1875,1.45313 v 3.57812 z m 15.61807,-0.85937 q -0.65625,0.5625 -1.26562,0.79687 -0.59375,0.21875 -1.28125,0.21875 -1.14063,0 -1.75,-0.54687 -0.60938,-0.5625 -0.60938,-1.4375 0,-0.5 0.21875,-0.92188 0.23438,-0.42187 0.60938,-0.67187 0.375,-0.25 0.84375,-0.39063 0.34375,-0.0781 1.04687,-0.17187 1.42188,-0.17188 2.09375,-0.40625 0,-0.23438 0,-0.29688 0,-0.71875 -0.32812,-1.01562 -0.45313,-0.39063 -1.34375,-0.39063 -0.8125,0 -1.21875,0.29688 -0.39063,0.28125 -0.57813,1.01562 l -1.14062,-0.15625 q 0.15625,-0.73437 0.51562,-1.1875 0.35938,-0.45312 1.03125,-0.6875 0.67188,-0.25 1.5625,-0.25 0.89063,0 1.4375,0.20313 0.5625,0.20312 0.8125,0.53125 0.26563,0.3125 0.375,0.79687 0.0469,0.29688 0.0469,1.07813 v 1.5625 q 0,1.625 0.0781,2.0625 0.0781,0.4375 0.29688,0.82812 h -1.21875 q -0.1875,-0.35937 -0.23438,-0.85937 z m -0.0937,-2.60938 q -0.64062,0.26563 -1.92187,0.4375 -0.71875,0.10938 -1.01563,0.25 -0.29687,0.125 -0.46875,0.375 -0.15625,0.25 -0.15625,0.54688 0,0.46875 0.34375,0.78125 0.35938,0.3125 1.04688,0.3125 0.67187,0 1.20312,-0.29688 0.53125,-0.29687 0.78125,-0.8125 0.1875,-0.39062 0.1875,-1.17187 z m 2.52185,1.40625 1.15625,-0.1875 q 0.10938,0.70313 0.54688,1.07813 0.45312,0.35937 1.25,0.35937 0.8125,0 1.20312,-0.32812 0.39063,-0.32813 0.39063,-0.76563 0,-0.39062 -0.35938,-0.625 -0.23437,-0.15625 -1.1875,-0.39062 -1.29687,-0.32813 -1.79687,-0.5625 -0.48438,-0.25 -0.75,-0.65625 -0.25,-0.42188 -0.25,-0.9375 0,-0.45313 0.20312,-0.84375 0.21875,-0.40625 0.57813,-0.67188 0.28125,-0.1875 0.75,-0.32812 0.46875,-0.14063 1.01562,-0.14063 0.8125,0 1.42188,0.23438 0.60937,0.23437 0.90625,0.64062 0.29687,0.39063 0.40625,1.0625 l -1.14063,0.15625 q -0.0781,-0.53125 -0.45312,-0.82812 -0.375,-0.3125 -1.0625,-0.3125 -0.8125,0 -1.15625,0.26562 -0.34375,0.26563 -0.34375,0.625 0,0.23438 0.14062,0.42188 0.15625,0.1875 0.45313,0.3125 0.17187,0.0625 1.03125,0.29687 1.25,0.32813 1.73437,0.54688 0.5,0.20312 0.78125,0.60937 0.28125,0.40625 0.28125,1 0,0.59375 -0.34375,1.10938 -0.34375,0.51562 -1,0.79687 -0.64062,0.28125 -1.45312,0.28125 -1.34375,0 -2.04688,-0.5625 -0.70312,-0.5625 -0.90625,-1.65625 z m 6.66407,0 1.15625,-0.1875 q 0.10937,0.70313 0.54687,1.07813 0.45313,0.35937 1.25,0.35937 0.8125,0 1.20313,-0.32812 0.39062,-0.32813 0.39062,-0.76563 0,-0.39062 -0.35937,-0.625 -0.23438,-0.15625 -1.1875,-0.39062 -1.29688,-0.32813 -1.79688,-0.5625 -0.48437,-0.25 -0.75,-0.65625 -0.25,-0.42188 -0.25,-0.9375 0,-0.45313 0.20313,-0.84375 0.21875,-0.40625 0.57812,-0.67188 0.28125,-0.1875 0.75,-0.32812 0.46875,-0.14063 1.01563,-0.14063 0.8125,0 1.42187,0.23438 0.60938,0.23437 0.90625,0.64062 0.29688,0.39063 0.40625,1.0625 l -1.14062,0.15625 q -0.0781,-0.53125 -0.45313,-0.82812 -0.375,-0.3125 -1.0625,-0.3125 -0.8125,0 -1.15625,0.26562 -0.34375,0.26563 -0.34375,0.625 0,0.23438 0.14063,0.42188 0.15625,0.1875 0.45312,0.3125 0.17188,0.0625 1.03125,0.29687 1.25,0.32813 1.73438,0.54688 0.5,0.20312 0.78125,0.60937 0.28125,0.40625 0.28125,1 0,0.59375 -0.34375,1.10938 -0.34375,0.51562 -1,0.79687 -0.64063,0.28125 -1.45313,0.28125 -1.34375,0 -2.04687,-0.5625 -0.70313,-0.5625 -0.90625,-1.65625 z m 7.11718,2.0625 v -9.54687 h 1.17188 v 9.54687 z m 7.71109,-2.21875 1.20313,0.14063 q -0.28125,1.0625 -1.0625,1.65625 -0.76563,0.57812 -1.96875,0.57812 -1.51563,0 -2.40625,-0.9375 -0.89063,-0.9375 -0.89063,-2.60937 0,-1.75 0.89063,-2.70313 0.90625,-0.96875 2.34375,-0.96875 1.39062,0 2.26562,0.9375 0.875,0.9375 0.875,2.65625 0,0.10938 0,0.3125 h -5.15625 q 0.0625,1.14063 0.64063,1.75 0.57812,0.59375 1.4375,0.59375 0.65625,0 1.10937,-0.32812 0.45313,-0.34375 0.71875,-1.07813 z m -3.84375,-1.90625 h 3.85938 q -0.0781,-0.85937 -0.4375,-1.29687 -0.5625,-0.6875 -1.45313,-0.6875 -0.8125,0 -1.35937,0.54687 -0.54688,0.53125 -0.60938,1.4375 z m 6.0531,2.0625 1.15625,-0.1875 q 0.10938,0.70313 0.54688,1.07813 0.45312,0.35937 1.25,0.35937 0.8125,0 1.20312,-0.32812 0.39063,-0.32813 0.39063,-0.76563 0,-0.39062 -0.35938,-0.625 -0.23437,-0.15625 -1.1875,-0.39062 -1.29687,-0.32813 -1.79687,-0.5625 -0.48438,-0.25 -0.75,-0.65625 -0.25,-0.42188 -0.25,-0.9375 0,-0.45313 0.20312,-0.84375 0.21875,-0.40625 0.57813,-0.67188 0.28125,-0.1875 0.75,-0.32812 0.46875,-0.14063 1.01562,-0.14063 0.8125,0 1.42188,0.23438 0.60937,0.23437 0.90625,0.64062 0.29687,0.39063 0.40625,1.0625 l -1.14063,0.15625 q -0.0781,-0.53125 -0.45312,-0.82812 -0.375,-0.3125 -1.0625,-0.3125 -0.8125,0 -1.15625,0.26562 -0.34375,0.26563 -0.34375,0.625 0,0.23438 0.14062,0.42188 0.15625,0.1875 0.45313,0.3125 0.17187,0.0625 1.03125,0.29687 1.25,0.32813 1.73437,0.54688 0.5,0.20312 0.78125,0.60937 0.28125,0.40625 0.28125,1 0,0.59375 -0.34375,1.10938 -0.34375,0.51562 -1,0.79687 -0.64062,0.28125 -1.45312,0.28125 -1.34375,0 -2.04688,-0.5625 -0.70312,-0.5625 -0.90625,-1.65625 z m 6.66407,0 1.15625,-0.1875 q 0.10937,0.70313 0.54687,1.07813 0.45313,0.35937 1.25,0.35937 0.8125,0 1.20313,-0.32812 0.39062,-0.32813 0.39062,-0.76563 0,-0.39062 -0.35937,-0.625 -0.23438,-0.15625 -1.1875,-0.39062 -1.29688,-0.32813 -1.79688,-0.5625 -0.48437,-0.25 -0.75,-0.65625 -0.25,-0.42188 -0.25,-0.9375 0,-0.45313 0.20313,-0.84375 0.21875,-0.40625 0.57812,-0.67188 0.28125,-0.1875 0.75,-0.32812 0.46875,-0.14063 1.01563,-0.14063 0.8125,0 1.42187,0.23438 0.60938,0.23437 0.90625,0.64062 0.29688,0.39063 0.40625,1.0625 l -1.14062,0.15625 q -0.0781,-0.53125 -0.45313,-0.82812 -0.375,-0.3125 -1.0625,-0.3125 -0.8125,0 -1.15625,0.26562 -0.34375,0.26563 -0.34375,0.625 0,0.23438 0.14063,0.42188 0.15625,0.1875 0.45312,0.3125 0.17188,0.0625 1.03125,0.29687 1.25,0.32813 1.73438,0.54688 0.5,0.20312 0.78125,0.60937 0.28125,0.40625 0.28125,1 0,0.59375 -0.34375,1.10938 -0.34375,0.51562 -1,0.79687 -0.64063,0.28125 -1.45313,0.28125 -1.34375,0 -2.04687,-0.5625 -0.70313,-0.5625 -0.90625,-1.65625 z"
       id="path41"
       inkscape:connector-curvature="0"
       style="fill:#000000;fill-rule:nonzero" />
    <path
       d="m 112,229.8924 v 0 c 0,-6.88835 13.48081,-12.47244 30.11023,-12.47244 v 0 c 16.62942,0 30.11024,5.58409 30.11024,12.47244 v 0 c 0,6.88834 -13.48082,12.47243 -30.11024,12.47243 v 0 C 125.48081,242.36483 112,236.78074 112,229.8924 Z"
       id="path43"
       inkscape:connector-curvature="0"
       style="fill:#eeeeee;fill-rule:evenodd" />
    <path
       d="m 112,229.8924 v 0 c 0,-6.88835 13.48081,-12.47244 30.11023,-12.47244 v 0 c 16.62942,0 30.11024,5.58409 30.11024,12.47244 v 0 c 0,6.88834 -13.48082,12.47243 -30.11024,12.47243 v 0 C 125.48081,242.36483 112,236.78074 112,229.8924 Z"
       id="path45"
       inkscape:connector-curvature="0"
       style="fill-rule:evenodd;stroke:#595959;stroke-width:1;stroke-linecap:butt;stroke-linejoin:round" />
    <path
       d="m 141.05577,236.0324 h -0.45313 l -0.6875,-6.21875 q -0.0156,-0.17188 -0.0469,-0.26563 -0.0312,-0.0937 -0.125,-0.17187 -0.0781,-0.0781 -0.23438,-0.0781 -0.34375,0 -0.64062,0.53125 -0.28125,0.51563 -0.39063,0.98438 l -0.375,-0.14063 q 0.28125,-1.03125 0.75,-1.65625 0.48438,-0.625 1.40625,-0.625 0.53125,0 0.76563,0.28125 0.25,0.26563 0.3125,0.84375 l 0.5625,5.34375 q 2.45312,-1.90625 2.45312,-3.5 0,-0.45312 -0.14062,-1.09375 -0.14063,-0.64062 -0.14063,-0.89062 0,-0.39063 0.26563,-0.6875 0.28125,-0.29688 0.75,-0.29688 0.375,0 0.57812,0.3125 0.21875,0.29688 0.21875,0.85938 0,1.07812 -0.89062,2.45312 -0.89063,1.375 -1.95313,2.40625 -1.0625,1.01563 -1.98437,1.60938 z"
       id="path47"
       inkscape:connector-curvature="0"
       style="fill:#000000;fill-rule:nonzero" />
    <path
       d="M 338.18372,96.56956 200.35695,121.8609"
       id="path49"
       inkscape:connector-curvature="0"
       style="fill:#000000;fill-opacity:0;fill-rule:evenodd" />
    <path
       d="M 338.18372,96.56956 200.35695,121.8609"
       id="path51"
       inkscape:connector-curvature="0"
       style="fill-rule:evenodd;stroke:#595959;stroke-width:1;stroke-linecap:butt;stroke-linejoin:round" />
    <path
       d="m 338.18372,96.56956 -6.61417,32.18897"
       id="path53"
       inkscape:connector-curvature="0"
       style="fill:#000000;fill-opacity:0;fill-rule:evenodd" />
    <path
       d="m 338.18372,96.56956 -6.61417,32.18897"
       id="path55"
       inkscape:connector-curvature="0"
       style="fill-rule:evenodd;stroke:#595959;stroke-width:1;stroke-linecap:butt;stroke-linejoin:round" />
    <path
       d="M 331.55643,153.70341 142.10761,217.41995"
       id="path57"
       inkscape:connector-curvature="0"
       style="fill:#000000;fill-opacity:0;fill-rule:evenodd" />
    <path
       d="M 331.55643,153.70341 142.10761,217.41995"
       id="path59"
       inkscape:connector-curvature="0"
       style="fill-rule:evenodd;stroke:#595959;stroke-width:1;stroke-linecap:butt;stroke-linejoin:round" />
    <path
       d="M 331.55643,153.70341 219.52494,221.32545"
       id="path61"
       inkscape:connector-curvature="0"
       style="fill:#000000;fill-opacity:0;fill-rule:evenodd" />
    <path
       d="M 331.55643,153.70341 219.52494,221.32545"
       id="path63"
       inkscape:connector-curvature="0"
       style="fill-rule:evenodd;stroke:#595959;stroke-width:1;stroke-linecap:butt;stroke-linejoin:round" />
    <path
       d="m 331.55643,153.70341 -39.1181,76.12598"
       id="path65"
       inkscape:connector-curvature="0"
       style="fill:#000000;fill-opacity:0;fill-rule:evenodd" />
    <path
       d="m 331.55643,153.70341 -39.1181,76.12598"
       id="path67"
       inkscape:connector-curvature="0"
       style="fill-rule:evenodd;stroke:#595959;stroke-width:1;stroke-linecap:butt;stroke-linejoin:round" />
    <path
       d="m 331.55643,153.70341 60.94488,80.37794"
       id="path69"
       inkscape:connector-curvature="0"
       style="fill:#000000;fill-opacity:0;fill-rule:evenodd" />
    <path
       d="m 331.55643,153.70341 60.94488,80.37794"
       id="path71"
       inkscape:connector-curvature="0"
       style="fill-rule:evenodd;stroke:#595959;stroke-width:1;stroke-linecap:butt;stroke-linejoin:round" />
    <path
       d="m 169.46982,18.648376 v 0 c 0,-2.296158 1.8614,-4.157563 4.15756,-4.157563 h 93.88959 c 1.10266,0 2.16016,0.438028 2.93985,1.217723 0.7797,0.779693 1.21771,1.837187 1.21771,2.93984 v 16.629757 c 0,2.296158 -1.86138,4.157563 -4.15756,4.157563 h -93.88959 c -2.29616,0 -4.15756,-1.861405 -4.15756,-4.157563 z"
       id="path73"
       inkscape:connector-curvature="0"
       style="fill:#eeeeee;fill-rule:evenodd" />
    <path
       d="m 169.46982,18.648376 v 0 c 0,-2.296158 1.8614,-4.157563 4.15756,-4.157563 h 93.88959 c 1.10266,0 2.16016,0.438028 2.93985,1.217723 0.7797,0.779693 1.21771,1.837187 1.21771,2.93984 v 16.629757 c 0,2.296158 -1.86138,4.157563 -4.15756,4.157563 h -93.88959 c -2.29616,0 -4.15756,-1.861405 -4.15756,-4.157563 z"
       id="path75"
       inkscape:connector-curvature="0"
       style="fill-rule:evenodd;stroke:#595959;stroke-width:1;stroke-linecap:butt;stroke-linejoin:round" />
    <path
       d="m 218.51183,29.013254 1.15625,-1.53125 v -2.953125 q 0,-1.46875 0.39062,-1.96875 0.40625,-0.5 1.125,-0.5 0.625,0 1.03125,0.421875 0.40625,0.421875 0.40625,1.140625 0,0.59375 -0.39062,1.453125 -0.39063,0.859375 -1.46875,2.359375 v 2.703125 q 0,0.578125 0.0937,0.71875 0.0937,0.140625 0.28125,0.140625 0.17187,0 0.39062,-0.109375 0.21875,-0.109375 0.90625,-0.59375 v 1.0625 q -0.73437,0.5625 -1.46875,0.5625 -0.59375,0 -0.95312,-0.359375 -0.34375,-0.375 -0.34375,-1.203125 v -1.46875 l -0.51563,0.640625 z m 2.25,-3.09375 q 0.64062,-1.109375 0.79687,-1.515625 0.15625,-0.421875 0.15625,-0.78125 0,-0.390625 -0.17187,-0.625 -0.125,-0.15625 -0.32813,-0.15625 -0.20312,0 -0.29687,0.171875 -0.15625,0.265625 -0.15625,1.421875 z"
       id="path77"
       inkscape:connector-curvature="0"
       style="fill:#000000;fill-rule:nonzero" />
    <path
       d="m 396.97638,18.648376 v 0 c 0,-2.296158 1.86139,-4.157563 4.15756,-4.157563 h 93.88959 c 1.10266,0 2.16016,0.438028 2.93985,1.217723 0.7797,0.779693 1.21771,1.837187 1.21771,2.93984 v 16.629757 c 0,2.296158 -1.86138,4.157563 -4.15756,4.157563 h -93.88959 c -2.29617,0 -4.15756,-1.861405 -4.15756,-4.157563 z"
       id="path79"
       inkscape:connector-curvature="0"
       style="fill:#eeeeee;fill-rule:evenodd" />
    <path
       d="m 396.97638,18.648376 v 0 c 0,-2.296158 1.86139,-4.157563 4.15756,-4.157563 h 93.88959 c 1.10266,0 2.16016,0.438028 2.93985,1.217723 0.7797,0.779693 1.21771,1.837187 1.21771,2.93984 v 16.629757 c 0,2.296158 -1.86138,4.157563 -4.15756,4.157563 h -93.88959 c -2.29617,0 -4.15756,-1.861405 -4.15756,-4.157563 z"
       id="path81"
       inkscape:connector-curvature="0"
       style="fill-rule:evenodd;stroke:#595959;stroke-width:1;stroke-linecap:butt;stroke-linejoin:round" />
    <path
       d="m 445.63733,31.763254 v -9.546875 h 1.17188 v 5.453125 l 2.76562,-2.8125 h 1.51563 l -2.64063,2.5625 2.90625,4.34375 h -1.4375 l -2.28125,-3.53125 -0.82812,0.796875 v 2.734375 z"
       id="path83"
       inkscape:connector-curvature="0"
       style="fill:#000000;fill-rule:nonzero" />
    <path
       d="m 283.22308,18.648376 v 0 c 0,-2.296158 1.86142,-4.157563 4.15756,-4.157563 h 93.88962 c 1.10266,0 2.16016,0.438028 2.93985,1.217723 0.7797,0.779693 1.21771,1.837187 1.21771,2.93984 v 16.629757 c 0,2.296158 -1.86142,4.157563 -4.15756,4.157563 h -93.88962 c -2.29614,0 -4.15756,-1.861405 -4.15756,-4.157563 z"
       id="path85"
       inkscape:connector-curvature="0"
       style="fill:#eeeeee;fill-rule:evenodd" />
    <path
       d="m 325.01678,28.02888 v -1.125 l 4.03125,-0.01563 v 3.546875 q -0.92188,0.75 -1.92188,1.125 -0.98437,0.359375 -2.03125,0.359375 -1.40625,0 -2.5625,-0.59375 -1.14062,-0.609375 -1.73437,-1.734375 -0.57813,-1.140625 -0.57813,-2.546875 0,-1.40625 0.57813,-2.609375 0.59375,-1.203125 1.6875,-1.78125 1.09375,-0.59375 2.51562,-0.59375 1.03125,0 1.85938,0.34375 0.84375,0.328125 1.3125,0.9375 0.48437,0.59375 0.73437,1.546875 l -1.14062,0.3125 q -0.21875,-0.71875 -0.53125,-1.140625 -0.3125,-0.421875 -0.90625,-0.671875 -0.59375,-0.25 -1.3125,-0.25 -0.875,0 -1.51563,0.265625 -0.625,0.265625 -1.01562,0.703125 -0.375,0.421875 -0.59375,0.9375 -0.35938,0.875 -0.35938,1.921875 0,1.265625 0.4375,2.125 0.4375,0.859375 1.26563,1.28125 0.84375,0.421875 1.79687,0.421875 0.8125,0 1.59375,-0.3125 0.78125,-0.328125 1.1875,-0.6875 v -1.76562 z m 12.69516,0.390625 1.26562,0.3125 q -0.39062,1.5625 -1.42187,2.375 -1.03125,0.8125 -2.53125,0.8125 -1.53125,0 -2.5,-0.625 -0.96875,-0.625 -1.48438,-1.8125 -0.5,-1.1875 -0.5,-2.5625 0,-1.484375 0.5625,-2.59375 0.57813,-1.109375 1.625,-1.6875 1.0625,-0.578125 2.32813,-0.578125 1.42187,0 2.39062,0.734375 0.98438,0.71875 1.375,2.046875 l -1.25,0.296875 q -0.32812,-1.046875 -0.96875,-1.515625 -0.625,-0.484375 -1.57812,-0.484375 -1.09375,0 -1.84375,0.53125 -0.73438,0.53125 -1.03125,1.421875 -0.29688,0.875 -0.29688,1.828125 0,1.21875 0.34375,2.125 0.35938,0.90625 1.10938,1.359375 0.75,0.4375 1.625,0.4375 1.0625,0 1.79687,-0.609375 0.73438,-0.609375 0.98438,-1.8125 z m 2.82828,3.34375 V 22.21638 h 3.28125 q 1.10937,0 1.70312,0.140625 0.8125,0.1875 1.39063,0.6875 0.76562,0.640625 1.14062,1.640625 0.375,0.984375 0.375,2.25 0,1.09375 -0.26562,1.9375 -0.25,0.828125 -0.65625,1.390625 -0.39063,0.546875 -0.85938,0.859375 -0.46875,0.3125 -1.14062,0.484375 -0.65625,0.15625 -1.53125,0.15625 z m 1.26562,-1.125 h 2.03125 q 0.9375,0 1.46875,-0.171875 0.54688,-0.1875 0.875,-0.5 0.4375,-0.453125 0.6875,-1.203125 0.25,-0.765625 0.25,-1.84375 0,-1.5 -0.5,-2.296875 -0.48437,-0.8125 -1.1875,-1.078125 -0.5,-0.203125 -1.625,-0.203125 h -2 z"
       id="path89"
       inkscape:connector-curvature="0"
       style="fill:#000000;fill-rule:nonzero" />
    <path
       d="M 220.57217,39.435696 338.17846,71.624672"
       id="path91"
       inkscape:connector-curvature="0"
       style="fill:#000000;fill-opacity:0;fill-rule:evenodd" />
    <path
       d="M 220.57217,39.435696 338.17846,71.624672"
       id="path93"
       inkscape:connector-curvature="0"
       style="fill-rule:evenodd;stroke:#595959;stroke-width:1;stroke-linecap:butt;stroke-linejoin:round" />
    <path
       d="m 334.32547,39.435696 3.87399,32.188976"
       id="path95"
       inkscape:connector-curvature="0"
       style="fill:#000000;fill-opacity:0;fill-rule:evenodd" />
    <path
       d="m 334.32547,39.435696 3.87399,32.188976"
       id="path97"
       inkscape:connector-curvature="0"
       style="fill-rule:evenodd;stroke:#595959;stroke-width:1;stroke-linecap:butt;stroke-linejoin:round" />
    <path
       d="M 448.07874,39.435696 338.18897,71.624672"
       id="path99"
       inkscape:connector-curvature="0"
       style="fill:#000000;fill-opacity:0;fill-rule:evenodd" />
    <path
       d="M 448.07874,39.435696 338.18897,71.624672"
       id="path101"
       inkscape:connector-curvature="0"
       style="fill-rule:evenodd;stroke:#595959;stroke-width:1;stroke-linecap:butt;stroke-linejoin:round" />
    <path
       d="m 466.99344,246.53806 v 0 c 0,-6.88834 11.45727,-12.47244 25.59055,-12.47244 v 0 c 14.13327,0 25.59057,5.5841 25.59057,12.47244 v 0 c 0,6.88834 -11.4573,12.47244 -25.59057,12.47244 v 0 c -14.13327,0 -25.59055,-5.5841 -25.59055,-12.47244 z"
       id="path103"
       inkscape:connector-curvature="0"
       style="fill:#eeeeee;fill-rule:evenodd" />
    <path
       d="m 466.99344,246.53806 v 0 c 0,-6.88834 11.45727,-12.47244 25.59055,-12.47244 v 0 c 14.13327,0 25.59057,5.5841 25.59057,12.47244 v 0 c 0,6.88834 -11.4573,12.47244 -25.59057,12.47244 v 0 c -14.13327,0 -25.59055,-5.5841 -25.59055,-12.47244 z"
       id="path105"
       inkscape:connector-curvature="0"
       style="fill-rule:evenodd;stroke:#595959;stroke-width:1;stroke-linecap:butt;stroke-linejoin:round" />
    <path
       d="m 488.3183,248.97868 1.1875,-0.0781 q 0,0.51563 0.15625,0.875 0.15625,0.35938 0.57813,0.59375 0.42187,0.21875 0.96875,0.21875 0.78125,0 1.17187,-0.3125 0.39063,-0.3125 0.39063,-0.73437 0,-0.3125 -0.23438,-0.57813 -0.23437,-0.28125 -1.17187,-0.67187 -0.9375,-0.40625 -1.1875,-0.57813 -0.4375,-0.26562 -0.67188,-0.625 -0.21875,-0.35937 -0.21875,-0.82812 0,-0.8125 0.65625,-1.39063 0.65625,-0.59375 1.82813,-0.59375 1.29687,0 1.96875,0.60938 0.6875,0.59375 0.71875,1.57812 l -1.15625,0.0781 q -0.0312,-0.625 -0.45313,-0.98438 -0.40625,-0.375 -1.17187,-0.375 -0.60938,0 -0.95313,0.28125 -0.32812,0.28125 -0.32812,0.60938 0,0.3125 0.29687,0.5625 0.1875,0.17187 1,0.53125 1.35938,0.57812 1.70313,0.92187 0.5625,0.53125 0.5625,1.3125 0,0.51563 -0.3125,1.01563 -0.3125,0.48437 -0.96875,0.78125 -0.64063,0.29687 -1.51563,0.29687 -1.20312,0 -2.04687,-0.59375 -0.84375,-0.59375 -0.79688,-1.92187 z m 8.17969,-5.8125 0.28125,-1.32813 h 1.34375 l -0.23438,1.17188 q -0.21875,1.04687 -0.6875,1.53125 -0.46875,0.48437 -1.09375,0.5625 l 0.10938,-0.51563 q 0.76562,-0.21875 1.01562,-1.42187 z"
       id="path107"
       inkscape:connector-curvature="0"
       style="fill:#000000;fill-rule:nonzero" />
    <path
       d="M 331.55643,153.70341 492.5958,234.08135"
       id="path109"
       inkscape:connector-curvature="0"
       style="fill:#000000;fill-opacity:0;fill-rule:evenodd" />
    <path
       d="M 331.55643,153.70341 492.5958,234.08135"
       id="path111"
       inkscape:connector-curvature="0"
       style="fill-rule:evenodd;stroke:#595959;stroke-width:1;stroke-linecap:butt;stroke-linejoin:round" />
    <path
       d="m 23.262577,221.59317 v 0 c 0,-6.88834 17.513775,-12.47244 39.11811,-12.47244 v 0 c 21.604336,0 39.118103,5.5841 39.118103,12.47244 v 0 c 0,6.88835 -17.513767,12.47244 -39.118103,12.47244 v 0 c -21.604336,0 -39.11811,-5.58409 -39.11811,-12.47244 z"
       id="path113"
       inkscape:connector-curvature="0"
       style="fill:#eeeeee;fill-rule:evenodd" />
    <path
       d="m 23.262577,221.59317 v 0 c 0,-6.88834 17.513775,-12.47244 39.11811,-12.47244 v 0 c 21.604336,0 39.118103,5.5841 39.118103,12.47244 v 0 c 0,6.88835 -17.513767,12.47244 -39.118103,12.47244 v 0 c -21.604336,0 -39.11811,-5.58409 -39.11811,-12.47244 z"
       id="path115"
       inkscape:connector-curvature="0"
       style="fill-rule:evenodd;stroke:#595959;stroke-width:1;stroke-linecap:butt;stroke-linejoin:round" />
    <path
       d="m 51.386463,226.39317 v -8.42188 h -3.140625 v -1.125 h 7.5625 v 1.125 h -3.15625 v 8.42188 z m 4.780685,2.65625 -0.125,-1.09375 q 0.375,0.10937 0.65625,0.10937 0.390625,0 0.625,-0.14062 0.234375,-0.125 0.390625,-0.35938 0.109375,-0.17187 0.359375,-0.875 0.03125,-0.0937 0.109375,-0.28125 l -2.625,-6.92187 h 1.265625 l 1.4375,4 q 0.28125,0.76562 0.5,1.59375 0.203125,-0.79688 0.46875,-1.57813 l 1.484375,-4.01562 h 1.171875 l -2.625,7.01562 q -0.421875,1.14063 -0.65625,1.57813 -0.3125,0.57812 -0.71875,0.84375 -0.40625,0.28125 -0.96875,0.28125 -0.328125,0 -0.75,-0.15625 z m 6.710938,0 v -9.5625 h 1.078125 v 0.89062 q 0.374996,-0.53125 0.843746,-0.78125 0.484375,-0.26562 1.15625,-0.26562 0.875008,0 1.546883,0.45312 0.6875,0.45313 1.03125,1.28125 0.34375,0.82813 0.34375,1.82813 0,1.04687 -0.375,1.90625 -0.375,0.84375 -1.109375,1.29687 -0.718758,0.45313 -1.531258,0.45313 -0.578125,0 -1.046875,-0.25 -0.46875,-0.25 -0.765625,-0.625 v 3.375 z m 1.0625,-6.07813 q 0,1.34375 0.531246,1.98438 0.546875,0.625 1.3125,0.625 0.78125,0 1.343758,-0.65625 0.5625,-0.65625 0.5625,-2.04688 0,-1.3125 -0.546875,-1.96875 -0.546883,-0.67187 -1.296883,-0.67187 -0.75,0 -1.328125,0.70312 -0.578121,0.70313 -0.578121,2.03125 z m 11.084354,1.20313 1.203125,0.14062 q -0.28125,1.0625 -1.0625,1.65625 -0.765625,0.57813 -1.96875,0.57813 -1.515625,0 -2.40625,-0.9375 -0.890625,-0.9375 -0.890625,-2.60938 0,-1.75 0.890625,-2.70312 0.90625,-0.96875 2.34375,-0.96875 1.390625,0 2.265625,0.9375 0.875,0.9375 0.875,2.65625 0,0.10937 0,0.3125 h -5.15625 q 0.0625,1.14062 0.640625,1.75 0.578125,0.59375 1.4375,0.59375 0.65625,0 1.109375,-0.32813 0.453125,-0.34375 0.71875,-1.07812 z m -3.84375,-1.90625 h 3.859375 q -0.07813,-0.85938 -0.4375,-1.29688 -0.5625,-0.6875 -1.453125,-0.6875 -0.8125,0 -1.359375,0.54688 -0.546875,0.53125 -0.609375,1.4375 z"
       id="path117"
       inkscape:connector-curvature="0"
       style="fill:#000000;fill-rule:nonzero" />
    <path
       d="M 331.55643,153.70341 62.39109,209.13648"
       id="path119"
       inkscape:connector-curvature="0"
       style="fill:#000000;fill-opacity:0;fill-rule:evenodd" />
    <path
       d="M 331.55643,153.70341 62.39109,209.13648"
       id="path121"
       inkscape:connector-curvature="0"
       style="fill-rule:evenodd;stroke:#595959;stroke-width:1;stroke-linecap:butt;stroke-linejoin:round" />
    <path
       d="m 529.4278,149.2126 v 0 c 0,-6.88834 17.51379,-12.47244 39.11816,-12.47244 v 0 c 21.60431,0 39.11811,5.5841 39.11811,12.47244 v 0 c 0,6.88834 -17.5138,12.47244 -39.11811,12.47244 v 0 c -21.60437,0 -39.11816,-5.5841 -39.11816,-12.47244 z"
       id="path123"
       inkscape:connector-curvature="0"
       style="fill:#eeeeee;fill-rule:evenodd" />
    <path
       d="m 529.4278,149.2126 v 0 c 0,-6.88834 17.51379,-12.47244 39.11816,-12.47244 v 0 c 21.60431,0 39.11811,5.5841 39.11811,12.47244 v 0 c 0,6.88834 -17.5138,12.47244 -39.11811,12.47244 v 0 c -21.60437,0 -39.11816,-5.5841 -39.11816,-12.47244 z"
       id="path125"
       inkscape:connector-curvature="0"
       style="fill-rule:evenodd;stroke:#595959;stroke-width:1;stroke-linecap:butt;stroke-linejoin:round" />
    <path
       d="m 555.88135,154.0126 v -9.54688 h 3.28125 q 1.10937,0 1.70312,0.14063 0.8125,0.1875 1.39063,0.6875 0.76562,0.64062 1.14062,1.64062 0.375,0.98438 0.375,2.25 0,1.09375 -0.26562,1.9375 -0.25,0.82813 -0.65625,1.39063 -0.39063,0.54687 -0.85938,0.85937 -0.46875,0.3125 -1.14062,0.48438 -0.65625,0.15625 -1.53125,0.15625 z m 1.26562,-1.125 h 2.03125 q 0.9375,0 1.46875,-0.17188 0.54688,-0.1875 0.875,-0.5 0.4375,-0.45312 0.6875,-1.20312 0.25,-0.76563 0.25,-1.84375 0,-1.5 -0.5,-2.29688 -0.48437,-0.8125 -1.1875,-1.07812 -0.5,-0.20313 -1.625,-0.20313 h -2 z m 8.31269,1.125 v -9.54688 h 1.90625 l 2.25,6.76563 q 0.3125,0.9375 0.46875,1.40625 0.15625,-0.51563 0.5,-1.53125 l 2.28125,-6.64063 h 1.70312 v 9.54688 h -1.21875 v -7.98438 l -2.76562,7.98438 h -1.14063 l -2.76562,-8.125 v 8.125 z m 10.52429,-2.0625 1.15625,-0.1875 q 0.10937,0.70312 0.54687,1.07812 0.45313,0.35938 1.25,0.35938 0.8125,0 1.20313,-0.32813 0.39062,-0.32812 0.39062,-0.76562 0,-0.39063 -0.35937,-0.625 -0.23438,-0.15625 -1.1875,-0.39063 -1.29688,-0.32812 -1.79688,-0.5625 -0.48437,-0.25 -0.75,-0.65625 -0.25,-0.42187 -0.25,-0.9375 0,-0.45312 0.20313,-0.84375 0.21875,-0.40625 0.57812,-0.67187 0.28125,-0.1875 0.75,-0.32813 0.46875,-0.14062 1.01563,-0.14062 0.8125,0 1.42187,0.23437 0.60938,0.23438 0.90625,0.64063 0.29688,0.39062 0.40625,1.0625 l -1.14062,0.15625 q -0.0781,-0.53125 -0.45313,-0.82813 -0.375,-0.3125 -1.0625,-0.3125 -0.8125,0 -1.15625,0.26563 -0.34375,0.26562 -0.34375,0.625 0,0.23437 0.14063,0.42187 0.15625,0.1875 0.45312,0.3125 0.17188,0.0625 1.03125,0.29688 1.25,0.32812 1.73438,0.54687 0.5,0.20313 0.78125,0.60938 0.28125,0.40625 0.28125,1 0,0.59375 -0.34375,1.10937 -0.34375,0.51563 -1,0.79688 -0.64063,0.28125 -1.45313,0.28125 -1.34375,0 -2.04687,-0.5625 -0.70313,-0.5625 -0.90625,-1.65625 z"
       id="path127"
       inkscape:connector-curvature="0"
       style="fill:#000000;fill-rule:nonzero" />
    <path
       d="m 338.18372,96.56956 230.36224,40.15748"
       id="path129"
       inkscape:connector-curvature="0"
       style="fill:#000000;fill-opacity:0;fill-rule:evenodd" />
    <path
       d="m 338.18372,96.56956 230.36224,40.15748"
       id="path131"
       inkscape:connector-curvature="0"
       style="fill-rule:evenodd;stroke:#595959;stroke-width:1;stroke-linecap:butt;stroke-linejoin:round" />
    <path
       d="m 622.559,204.94751 v 0 c 0,-6.88834 21.58905,-12.47244 48.22046,-12.47244 v 0 c 26.63147,0 48.22046,5.5841 48.22046,12.47244 v 0 c 0,6.88834 -21.58899,12.47244 -48.22046,12.47244 v 0 c -26.63141,0 -48.22046,-5.5841 -48.22046,-12.47244 z"
       id="path133"
       inkscape:connector-curvature="0"
       style="fill:#eeeeee;fill-rule:evenodd" />
    <path
       d="m 622.559,204.94751 v 0 c 0,-6.88834 21.58905,-12.47244 48.22046,-12.47244 v 0 c 26.63147,0 48.22046,5.5841 48.22046,12.47244 v 0 c 0,6.88834 -21.58899,12.47244 -48.22046,12.47244 v 0 c -26.63141,0 -48.22046,-5.5841 -48.22046,-12.47244 z"
       id="path135"
       inkscape:connector-curvature="0"
       style="fill-rule:evenodd;stroke:#595959;stroke-width:1;stroke-linecap:butt;stroke-linejoin:round" />
    <path
       d="m 655.50446,209.74751 2,-9.54688 h 1.23437 l 1.60938,3.57813 q 0.73437,1.64062 1.15625,2.76562 0.25,0.65625 0.57812,1.76563 0.17188,-1.21875 0.4375,-2.5 l 1.17188,-5.60938 h 1.25 l -2,9.54688 h -1.26563 l -2.35937,-5.51563 q -0.64063,-1.45312 -0.98438,-2.5625 -0.0937,0.92188 -0.375,2.28125 l -1.21875,5.79688 z m 9.62512,-2.625 q 0,-2.01563 1.1875,-3.34375 0.98438,-1.09375 2.57813,-1.09375 1.25,0 2.01562,0.78125 0.76563,0.78125 0.76563,2.10937 0,1.1875 -0.48438,2.21875 -0.48437,1.01563 -1.375,1.5625 -0.89062,0.54688 -1.875,0.54688 -0.79687,0 -1.46875,-0.34375 -0.65625,-0.34375 -1,-0.96875 -0.34375,-0.64063 -0.34375,-1.46875 z m 1.17188,-0.10938 q 0,0.96875 0.46875,1.48438 0.46875,0.5 1.1875,0.5 0.375,0 0.75,-0.15625 0.375,-0.15625 0.6875,-0.46875 0.32812,-0.3125 0.54687,-0.70313 0.21875,-0.40625 0.35938,-0.875 0.20312,-0.64062 0.20312,-1.23437 0,-0.9375 -0.46875,-1.45313 -0.46875,-0.51562 -1.1875,-0.51562 -0.5625,0 -1.01562,0.26562 -0.45313,0.26563 -0.82813,0.78125 -0.35937,0.5 -0.53125,1.17188 -0.17187,0.67187 -0.17187,1.20312 z m 6.02185,2.73438 1.45312,-6.90625 h 1.0625 l -0.25,1.20312 q 0.6875,-0.71875 1.29688,-1.03125 0.60937,-0.32812 1.23437,-0.32812 0.84375,0 1.3125,0.45312 0.48438,0.45313 0.48438,1.21875 0,0.375 -0.17188,1.20313 l -0.875,4.1875 h -1.17187 l 0.92187,-4.375 q 0.125,-0.64063 0.125,-0.95313 0,-0.34375 -0.23437,-0.54687 -0.23438,-0.21875 -0.6875,-0.21875 -0.90625,0 -1.60938,0.65625 -0.70312,0.64062 -1.03125,2.21875 l -0.67187,3.21875 z m 12.4906,-2.34375 1.15625,0.10937 q -0.25,0.85938 -1.14063,1.625 -0.89062,0.76563 -2.125,0.76563 -0.76562,0 -1.40625,-0.34375 -0.64062,-0.35938 -0.98437,-1.03125 -0.32813,-0.6875 -0.32813,-1.54688 0,-1.14062 0.51563,-2.20312 0.53125,-1.0625 1.35937,-1.57813 0.84375,-0.51562 1.8125,-0.51562 1.23438,0 1.96875,0.76562 0.75,0.76563 0.75,2.09375 0,0.5 -0.0937,1.04688 h -5.09375 q -0.0312,0.1875 -0.0312,0.35937 0,0.96875 0.4375,1.48438 0.45313,0.5 1.10938,0.5 0.59375,0 1.17187,-0.39063 0.59375,-0.39062 0.92188,-1.14062 z m -3.42188,-1.71875 h 3.875 q 0.0156,-0.1875 0.0156,-0.26563 0,-0.875 -0.45313,-1.34375 -0.4375,-0.48437 -1.125,-0.48437 -0.76562,0 -1.39062,0.53125 -0.60938,0.51562 -0.92188,1.5625 z"
       id="path137"
       inkscape:connector-curvature="0"
       style="fill:#000000;fill-rule:nonzero" />
    <path
       d="m 548.9344,204.94751 v 0 c 0,-6.88834 11.45727,-12.47244 25.59058,-12.47244 v 0 c 14.13324,0 25.59051,5.5841 25.59051,12.47244 v 0 c 0,6.88834 -11.45727,12.47244 -25.59051,12.47244 v 0 c -14.13331,0 -25.59058,-5.5841 -25.59058,-12.47244 z"
       id="path139"
       inkscape:connector-curvature="0"
       style="fill:#eeeeee;fill-rule:evenodd" />
    <path
       d="m 548.9344,204.94751 v 0 c 0,-6.88834 11.45727,-12.47244 25.59058,-12.47244 v 0 c 14.13324,0 25.59051,5.5841 25.59051,12.47244 v 0 c 0,6.88834 -11.45727,12.47244 -25.59051,12.47244 v 0 c -14.13331,0 -25.59058,-5.5841 -25.59058,-12.47244 z"
       id="path141"
       inkscape:connector-curvature="0"
       style="fill-rule:evenodd;stroke:#595959;stroke-width:1;stroke-linecap:butt;stroke-linejoin:round" />
    <path
       d="m 571.6568,203.24875 h 1.15625 l 1.70312,3.4375 1.76563,-3.4375 h 1.17187 l -2.29687,4.23437 2.40625,4.375 h -1.20313 l -1.84375,-3.59375 -1.85937,3.59375 h -1.1875 l 2.40625,-4.34375 z"
       id="path143"
       inkscape:connector-curvature="0"
       style="fill:#000000;fill-rule:nonzero" />
    <path
       d="m 483.84647,191.7664 v 0 c 0,-6.88834 11.45727,-12.47244 25.59055,-12.47244 v 0 c 14.13324,0 25.59057,5.5841 25.59057,12.47244 v 0 c 0,6.88834 -11.45733,12.47244 -25.59057,12.47244 v 0 c -14.13327,0 -25.59055,-5.5841 -25.59055,-12.47244 z"
       id="path145"
       inkscape:connector-curvature="0"
       style="fill:#eeeeee;fill-rule:evenodd" />
    <path
       d="m 483.84647,191.7664 v 0 c 0,-6.88834 11.45727,-12.47244 25.59055,-12.47244 v 0 c 14.13324,0 25.59057,5.5841 25.59057,12.47244 v 0 c 0,6.88834 -11.45733,12.47244 -25.59057,12.47244 v 0 c -14.13327,0 -25.59055,-5.5841 -25.59055,-12.47244 z"
       id="path147"
       inkscape:connector-curvature="0"
       style="fill-rule:evenodd;stroke:#595959;stroke-width:1;stroke-linecap:butt;stroke-linejoin:round" />
    <path
       d="m 505.87842,190.06766 h 1.04687 v 3.0625 q 0,0.85937 0.14063,1.3125 0.14062,0.45312 0.59375,0.76562 0.45312,0.29688 1.25,0.32813 v -5.46875 h 1.0625 v 5.46875 q 0.76562,-0.0312 1.20312,-0.3125 0.45313,-0.29688 0.60938,-0.73438 0.15625,-0.45312 0.15625,-1.35937 v -3.0625 h 1.04687 v 3.03125 q 0,1.21875 -0.21875,1.8125 -0.21875,0.59375 -0.90625,1.03125 -0.6875,0.4375 -1.89062,0.48437 v 2.25 h -1.0625 v -2.25 q -0.78125,-0.0156 -1.375,-0.21875 -0.57813,-0.20312 -0.98438,-0.64062 -0.40625,-0.4375 -0.54687,-0.90625 -0.125,-0.48438 -0.125,-1.5625 z"
       id="path149"
       inkscape:connector-curvature="0"
       style="fill:#000000;fill-rule:nonzero" />
    <path
       d="m 568.54596,161.68504 -59.11813,17.60629"
       id="path151"
       inkscape:connector-curvature="0"
       style="fill:#000000;fill-opacity:0;fill-rule:evenodd" />
    <path
       d="m 568.54596,161.68504 -59.11813,17.60629"
       id="path153"
       inkscape:connector-curvature="0"
       style="fill-rule:evenodd;stroke:#595959;stroke-width:1;stroke-linecap:butt;stroke-linejoin:round" />
    <path
       d="m 568.54596,161.68504 5.98425,30.80315"
       id="path155"
       inkscape:connector-curvature="0"
       style="fill:#000000;fill-opacity:0;fill-rule:evenodd" />
    <path
       d="m 568.54596,161.68504 5.98425,30.80315"
       id="path157"
       inkscape:connector-curvature="0"
       style="fill-rule:evenodd;stroke:#595959;stroke-width:1;stroke-linecap:butt;stroke-linejoin:round" />
    <path
       d="m 568.54596,161.68504 102.23621,30.80315"
       id="path159"
       inkscape:connector-curvature="0"
       style="fill:#000000;fill-opacity:0;fill-rule:evenodd" />
    <path
       d="m 568.54596,161.68504 102.23621,30.80315"
       id="path161"
       inkscape:connector-curvature="0"
       style="fill-rule:evenodd;stroke:#595959;stroke-width:1;stroke-linecap:butt;stroke-linejoin:round" />
  </g>
  <path
     d="m 272.44473,12.972443 v 0 c 0,-6.8883399 17.51379,-12.47243995 39.11816,-12.47243995 v 0 c 21.60431,0 39.11811,5.58410005 39.11811,12.47243995 v 0 c 0,6.88834 -17.5138,12.47244 -39.11811,12.47244 v 0 c -21.60437,0 -39.11816,-5.5841 -39.11816,-12.47244 z"
     id="path125-3"
     inkscape:connector-curvature="0"
     style="fill:none;fill-rule:evenodd;stroke:#595959;stroke-width:1;stroke-linecap:butt;stroke-linejoin:round;stroke-miterlimit:10" />
  <path
     d="m 81.2522,108.00775 v 0 c 0,-6.88834 12.59244,-12.472441 28.12598,-12.472441 v 0 c 15.53355,0 28.12599,5.584101 28.12599,12.472441 v 0 c 0,6.88834 -12.59244,12.47244 -28.12599,12.47244 v 0 c -15.53354,0 -28.12598,-5.5841 -28.12598,-12.47244 z"
     id="path15-3"
     inkscape:connector-curvature="0"
     style="fill:none;fill-rule:evenodd;stroke:#595959;stroke-width:1;stroke-linecap:butt;stroke-linejoin:round;stroke-miterlimit:10" />
  <path
     d="M 315.42114,82.578747 109.38868,95.551069"
     id="path51-6"
     inkscape:connector-curvature="0"
     style="fill:none;fill-rule:evenodd;stroke:#595959;stroke-width:1;stroke-linecap:butt;stroke-linejoin:round;stroke-miterlimit:10"
     sodipodi:nodetypes="cc" />
  <text
     xml:space="preserve"
     style="font-style:normal;font-weight:normal;font-size:40px;line-height:1.25;font-family:sans-serif;letter-spacing:0px;word-spacing:0px;fill:#000000;fill-opacity:1;stroke:none"
     x="89.470337"
     y="111.31417"
     id="text107"><tspan
       sodipodi:role="line"
       id="tspan105"
       x="89.470337"
       y="111.31417"
       style="font-size:13.33333302px">Nmax</tspan></text>
</svg>
